<?xml version="1.0" encoding="UTF-8"?>
<svg width="235px" height="44px" viewBox="0 0 235 44" version="1.1" xmlns="http://www.w3.org/2000/svg" xmlns:xlink="http://www.w3.org/1999/xlink">
    <g id="Main-template" stroke="none" stroke-width="1" fill="none" fill-rule="evenodd">
        <g id="Group-4" transform="translate(1.000000, 1.000000)">
            <g id="plant" fill-rule="nonzero" stroke="#FFFFFF">
                <path d="M20.8603522,22.1759713 C30.7306369,25.3481799 35.7436893,37.4158924 35.7436893,37.4158924 C35.7436893,37.4158924 24.7537615,44.3405125 14.8833371,41.1683039 C5.01305243,37.9960953 0,25.9282417 0,25.9282417 C0,25.9282417 10.9899279,19.0037627 20.8603522,22.1759713 Z" id="Path" fill="#C3EA21"></path>
                <path d="M32.6675168,16.2581891 C38.7007057,24.6240079 35.6697017,37.1803279 35.6697017,37.1803279 C35.6697017,37.1803279 22.8569342,36.1732035 16.8237453,27.8073847 C10.7905564,19.4415659 13.8215605,6.8852459 13.8215605,6.8852459 C13.8215605,6.8852459 26.6343279,7.8925096 32.6675168,16.2581891 Z" id="Path" fill="#8ADB53"></path>
                <path d="M49.9397874,22.1759713 C40.0693631,25.3481799 35.0563107,37.4158924 35.0563107,37.4158924 C35.0563107,37.4158924 46.0462385,44.3405125 55.9166629,41.1683039 C65.7869476,37.9960953 70.8,25.9282417 70.8,25.9282417 C70.8,25.9282417 59.8100721,19.0037627 49.9397874,22.1759713 Z" id="Path" fill="#206B34"></path>
                <path d="M38.1324832,16.2581891 C32.0992943,24.6240079 35.1302983,37.1803279 35.1302983,37.1803279 C35.1302983,37.1803279 47.9430658,36.1732035 53.9762547,27.8073847 C60.0094436,19.4415659 56.9784395,6.8852459 56.9784395,6.8852459 C56.9784395,6.8852459 44.1656721,7.8925096 38.1324832,16.2581891 Z" id="Path" fill="#369151"></path>
                <path d="M44.6796117,18.5901639 C44.6796117,28.857196 35.0563107,37.1803279 35.0563107,37.1803279 C35.0563107,37.1803279 25.4330097,28.857196 25.4330097,18.5901639 C25.4330097,8.32313183 35.0563107,0 35.0563107,0 C35.0563107,0 44.6796117,8.32313183 44.6796117,18.5901639 Z" id="Path" fill="#4FC16E"></path>
            </g>
            <text id="AgroMaster" font-family="PTSerif-Regular, PT Serif" font-size="25" font-weight="normal" letter-spacing="1.55048077">
                <tspan x="85.5471567" y="31" fill="#050505">Agro</tspan>
                <tspan x="144.49908" y="31" font-family="Roboto-Black, Roboto" font-weight="700" fill="#369151">Master</tspan>
            </text>
        </g>
    </g>
</svg>